<?xml version="1.0" encoding="UTF-8"?>
<svg version="1.1" viewBox="0 0 50 50" xmlns="http://www.w3.org/2000/svg">
 <rect width="50" height="50" fill-opacity="0"/>
 <path d="m25 6.6565c-10.103 0-18.324 8.2194-18.324 18.323 1.14e-5 10.103 8.2209 18.324 18.324 18.324s18.324-8.2209 18.324-18.324c-1.1e-5 -10.103-8.2209-18.323-18.324-18.323zm0 2.7827c8.5993 0 15.54 6.9409 15.54 15.54-1e-5 8.5993-6.9409 15.542-15.54 15.542-8.5993 7.7e-5 -15.54-6.9424-15.54-15.542 9.7e-6 -8.5993 6.9409-15.54 15.54-15.54z" color="#000000" color-rendering="auto" fill="#ec2828" image-rendering="auto" shape-rendering="auto" solid-color="#000000" style="block-progression:tb;isolation:auto;mix-blend-mode:normal;text-decoration-color:#000000;text-decoration-line:none;text-decoration-style:solid;text-indent:0;text-transform:none;white-space:normal"/>
 <path d="m32.528 16.212c-0.39394-0.39394-1.0278-0.39394-1.4217 0l-5.2591 5.2591-4.3557 4.3557-5.2591 5.2591c-0.39394 0.39394-0.39394 1.0278 1e-6 1.4217l1.2398 1.2398c0.39394 0.39394 1.0278 0.39394 1.4217 1e-6l5.2591-5.2591 4.3557-4.3557 5.2591-5.2591c0.39394-0.39394 0.39394-1.0278-1e-6 -1.4217l-1.2398-1.2398z" fill="#ec2828"/>
 <path d="m16.232 17.452c-0.39394 0.39394-0.39394 1.0278 0 1.4217l5.2591 5.2591 4.3557 4.3557 5.2591 5.2591c0.39394 0.39394 1.0278 0.39394 1.4217-1e-6l1.2398-1.2398c0.39394-0.39394 0.39394-1.0278 1e-6 -1.4217l-5.2591-5.2591-4.3557-4.3557-5.2591-5.2591c-0.39394-0.39394-1.0278-0.39394-1.4217 1e-6l-1.2398 1.2398z" fill="#ec2828"/>
</svg>
